<svg width="10" height="6" viewBox="0 0 10 6" fill="none" xmlns="http://www.w3.org/2000/svg">
<path d="M5.29576 5.16581L9.32796 1.19901C9.39485 1.13385 9.44794 1.05634 9.48418 0.970933C9.52041 0.885529 9.53906 0.793924 9.53906 0.701403C9.53906 0.608883 9.52041 0.517278 9.48418 0.431874C9.44794 0.346469 9.39485 0.268954 9.32796 0.203801C9.19425 0.0732677 9.01337 -2.29788e-08 8.82483 -3.12201e-08C8.63629 -3.94615e-08 8.45541 0.0732677 8.3217 0.203801L4.75338 3.673L1.22074 0.203801C1.08703 0.0732674 0.906147 -3.77357e-07 0.717607 -3.85598e-07C0.529067 -3.93839e-07 0.348187 0.0732673 0.214474 0.203801C0.147041 0.26871 0.0933943 0.346115 0.0566435 0.431531C0.0198917 0.516947 0.000766728 0.608676 0.000374763 0.701403C0.000766719 0.79413 0.0198917 0.885859 0.0566434 0.971275C0.0933942 1.05669 0.147041 1.1341 0.214474 1.19901L4.24667 5.16581C4.3135 5.23694 4.39461 5.29372 4.48489 5.33255C4.57517 5.37138 4.67266 5.39143 4.77122 5.39143C4.86978 5.39143 4.96727 5.37138 5.05754 5.33255C5.14782 5.29372 5.22893 5.23694 5.29576 5.16581Z" fill="white"/>
</svg>
