<svg width="96" height="73" viewBox="0 0 96 73" fill="none" xmlns="http://www.w3.org/2000/svg">
<path d="M19.9875 19.6665H48.1685C48.1685 19.6665 45.8202 55.0188 34.0781 55.0188C28.342 55.0188 24.8476 46.5825 22.7736 37.9521C20.6019 28.9157 19.9875 19.6665 19.9875 19.6665Z" stroke="#78350F" stroke-width="1.5" stroke-linecap="round" stroke-linejoin="round"/>
<path d="M48.1685 19.6664C48.1685 19.6664 50.6251 17.046 52.6667 16.9997C56.6667 16.9092 57.4061 19.6664 57.4061 19.6664C58.1891 21.2918 58.8152 25.5179 55.0579 29.4188C51.3003 33.3198 47.0941 36.7331 45.3824 37.952" stroke="#78350F" stroke-width="1.5" stroke-linecap="round" stroke-linejoin="round"/>
<path d="M19.9874 19.6669C19.9874 19.6669 17.4279 17.0166 15.3332 17.0003C11.3332 16.969 10.5937 19.6669 10.5937 19.6669C9.81089 21.2923 9.18465 25.5183 12.9421 29.4193C16.6996 33.3203 21.062 36.7336 22.7734 37.9528" stroke="#78350F" stroke-width="1.5" stroke-linecap="round" stroke-linejoin="round"/>
<path d="M24.6843 62.3334C24.6843 57.4572 34.0779 55.019 34.0779 55.019C34.0779 55.019 43.4717 57.4572 43.4717 62.3334H24.6843Z" stroke="#78350F" stroke-width="1.5" stroke-linecap="round" stroke-linejoin="round"/>
<path opacity="0.5" d="M33.0711 26.4973C26.7714 20.1977 31.2331 9.42627 40.1421 9.42627H76.7107C85.6197 9.42627 90.0814 20.1977 83.7817 26.4973L65.4975 44.7816C61.5922 48.6869 55.2606 48.6869 51.3553 44.7816L33.0711 26.4973Z" fill="#0369A1"/>
</svg>
